<svg width="298" height="187" viewBox="0 0 298 187" fill="none" xmlns="http://www.w3.org/2000/svg">
<g clip-path="url(#clip0_271_753)">
<mask id="mask0_271_753" style="mask-type:luminance" maskUnits="userSpaceOnUse" x="0" y="0" width="298" height="187">
<path d="M297.952 0.692871H0.95166V186.693H297.952V0.692871Z" fill="white"/>
</mask>
<g mask="url(#mask0_271_753)">
<mask id="mask1_271_753" style="mask-type:luminance" maskUnits="userSpaceOnUse" x="0" y="0" width="298" height="187">
<path d="M297.952 0.692871H0.95166V186.693H297.952V0.692871Z" fill="white"/>
</mask>
<g mask="url(#mask1_271_753)">
<path d="M294.417 146.966C296.359 146.966 297.932 148.541 297.932 150.482V154.108C297.932 156.051 296.359 157.624 294.417 157.624H290.791C288.85 157.624 287.276 156.051 287.276 154.108V150.482C287.276 148.541 288.85 146.966 290.791 146.966H294.417Z" fill="#D72638"/>
<path d="M8.11174 146.966C10.0533 146.966 11.6273 148.541 11.6273 150.482V154.108C11.6273 156.051 10.0533 157.624 8.11174 157.624H4.48628C2.54468 157.624 0.970703 156.051 0.970703 154.108V150.482C0.970703 148.541 2.54468 146.966 4.48628 146.966H8.11174Z" fill="#D72638"/>
<path d="M36.7421 176.034C38.6837 176.034 40.2577 177.608 40.2577 179.55V183.176C40.2577 185.118 38.6837 186.693 36.7421 186.693H33.1167C31.1751 186.693 29.6011 185.118 29.6011 183.176V179.55C29.6011 177.608 31.1751 176.034 33.1167 176.034H36.7421Z" fill="#D72638"/>
<path d="M65.3729 146.966C67.3145 146.966 68.8885 148.541 68.8885 150.482V154.108C68.8885 156.051 67.3145 157.624 65.3729 157.624H61.7475C59.8059 157.624 58.2319 156.051 58.2319 154.108V150.482C58.2319 148.541 59.8059 146.966 61.7475 146.966H65.3729Z" fill="#D72638"/>
<path d="M94.0031 176.034C95.9447 176.034 97.5187 177.608 97.5187 179.55V183.176C97.5187 185.118 95.9447 186.693 94.0031 186.693H90.3776C88.436 186.693 86.8621 185.118 86.8621 183.176V179.55C86.8621 177.608 88.436 176.034 90.3776 176.034H94.0031Z" fill="#D72638"/>
<path d="M122.634 146.966C124.576 146.966 126.15 148.541 126.15 150.482V154.108C126.15 156.051 124.576 157.624 122.634 157.624H119.009C117.067 157.624 115.493 156.051 115.493 154.108V150.482C115.493 148.541 117.067 146.966 119.009 146.966H122.634Z" fill="#D72638"/>
<path d="M151.264 176.034C153.206 176.034 154.78 177.608 154.78 179.55V183.176C154.78 185.118 153.206 186.693 151.264 186.693H147.639C145.697 186.693 144.123 185.118 144.123 183.176V179.55C144.123 177.608 145.697 176.034 147.639 176.034H151.264Z" fill="#D72638"/>
<path d="M179.895 146.966C181.836 146.966 183.41 148.541 183.41 150.482V154.108C183.41 156.051 181.836 157.624 179.895 157.624H176.269C174.328 157.624 172.754 156.051 172.754 154.108V150.482C172.754 148.541 174.328 146.966 176.269 146.966H179.895Z" fill="#D72638"/>
<path d="M208.526 176.034C210.467 176.034 212.041 177.608 212.041 179.55V183.176C212.041 185.118 210.467 186.693 208.526 186.693H204.9C202.959 186.693 201.385 185.118 201.385 183.176V179.55C201.385 177.608 202.959 176.034 204.9 176.034H208.526Z" fill="#D72638"/>
<path d="M237.156 146.966C239.097 146.966 240.671 148.541 240.671 150.482V154.108C240.671 156.051 239.097 157.624 237.156 157.624H233.53C231.589 157.624 230.015 156.051 230.015 154.108V150.482C230.015 148.541 231.589 146.966 233.53 146.966H237.156Z" fill="#D72638"/>
<path d="M265.786 176.034C267.728 176.034 269.302 177.608 269.302 179.55V183.176C269.302 185.118 267.728 186.693 265.786 186.693H262.161C260.219 186.693 258.645 185.118 258.645 183.176V179.55C258.645 177.608 260.219 176.034 262.161 176.034H265.786Z" fill="#D72638"/>
<path d="M36.7421 146.779C38.6837 146.779 40.2577 148.354 40.2577 150.296V153.921C40.2577 155.864 38.6837 157.438 36.7421 157.438H33.1167C31.1751 157.438 29.6011 155.864 29.6011 153.921V150.296C29.6011 148.354 31.1751 146.779 33.1167 146.779H36.7421Z" fill="#D72638"/>
<path d="M65.3729 117.712C67.3145 117.712 68.8885 119.286 68.8885 121.227V124.854C68.8885 126.796 67.3145 128.37 65.3729 128.37H61.7475C59.8059 128.37 58.2319 126.796 58.2319 124.854V121.227C58.2319 119.286 59.8059 117.712 61.7475 117.712H65.3729Z" fill="#D72638"/>
<path d="M94.0031 146.779C95.9447 146.779 97.5187 148.354 97.5187 150.296V153.921C97.5187 155.864 95.9447 157.438 94.0031 157.438H90.3776C88.436 157.438 86.8621 155.864 86.8621 153.921V150.296C86.8621 148.354 88.436 146.779 90.3776 146.779H94.0031Z" fill="#D72638"/>
<path d="M122.634 117.712C124.576 117.712 126.15 119.286 126.15 121.227V124.854C126.15 126.796 124.576 128.37 122.634 128.37H119.009C117.067 128.37 115.493 126.796 115.493 124.854V121.227C115.493 119.286 117.067 117.712 119.009 117.712H122.634Z" fill="#D72638"/>
<path d="M151.264 146.779C153.206 146.779 154.78 148.354 154.78 150.296V153.921C154.78 155.864 153.206 157.438 151.264 157.438H147.639C145.697 157.438 144.123 155.864 144.123 153.921V150.296C144.123 148.354 145.697 146.779 147.639 146.779H151.264Z" fill="#D72638"/>
<path d="M179.895 117.712C181.836 117.712 183.41 119.286 183.41 121.227V124.854C183.41 126.796 181.836 128.37 179.895 128.37H176.269C174.328 128.37 172.754 126.796 172.754 124.854V121.227C172.754 119.286 174.328 117.712 176.269 117.712H179.895Z" fill="#D72638"/>
<path d="M208.526 146.779C210.467 146.779 212.041 148.354 212.041 150.296V153.921C212.041 155.864 210.467 157.438 208.526 157.438H204.9C202.959 157.438 201.385 155.864 201.385 153.921V150.296C201.385 148.354 202.959 146.779 204.9 146.779H208.526Z" fill="#D72638"/>
<path d="M237.156 117.712C239.097 117.712 240.671 119.286 240.671 121.227V124.854C240.671 126.796 239.097 128.37 237.156 128.37H233.53C231.589 128.37 230.015 126.796 230.015 124.854V121.227C230.015 119.286 231.589 117.712 233.53 117.712H237.156Z" fill="#D72638"/>
<path d="M265.786 146.779C267.728 146.779 269.302 148.354 269.302 150.296V153.921C269.302 155.864 267.728 157.438 265.786 157.438H262.161C260.219 157.438 258.645 155.864 258.645 153.921V150.296C258.645 148.354 260.219 146.779 262.161 146.779H265.786Z" fill="#D72638"/>
<path d="M294.417 88.457C296.359 88.457 297.932 90.0312 297.932 91.9732V95.5992C297.932 97.5411 296.359 99.1153 294.417 99.1153H290.791C288.85 99.1153 287.276 97.5411 287.276 95.5992V91.9732C287.276 90.0312 288.85 88.457 290.791 88.457H294.417Z" fill="#D72638"/>
<path d="M8.11174 88.457C10.0533 88.457 11.6273 90.0312 11.6273 91.9732V95.5992C11.6273 97.5411 10.0533 99.1153 8.11174 99.1153H4.48628C2.54468 99.1153 0.970703 97.5411 0.970703 95.5992V91.9732C0.970703 90.0312 2.54468 88.457 4.48628 88.457H8.11174Z" fill="#D72638"/>
<path d="M36.7421 117.525C38.6837 117.525 40.2577 119.099 40.2577 121.041V124.667C40.2577 126.609 38.6837 128.183 36.7421 128.183H33.1167C31.1751 128.183 29.6011 126.609 29.6011 124.667V121.041C29.6011 119.099 31.1751 117.525 33.1167 117.525H36.7421Z" fill="#D72638"/>
<path d="M65.3729 88.457C67.3145 88.457 68.8885 90.0312 68.8885 91.9732V95.5992C68.8885 97.5411 67.3145 99.1153 65.3729 99.1153H61.7475C59.8059 99.1153 58.2319 97.5411 58.2319 95.5992V91.9732C58.2319 90.0312 59.8059 88.457 61.7475 88.457H65.3729Z" fill="#D72638"/>
<path d="M94.0031 117.525C95.9447 117.525 97.5187 119.099 97.5187 121.041V124.667C97.5187 126.609 95.9447 128.183 94.0031 128.183H90.3776C88.436 128.183 86.8621 126.609 86.8621 124.667V121.041C86.8621 119.099 88.436 117.525 90.3776 117.525H94.0031Z" fill="#D72638"/>
<path d="M122.634 88.457C124.576 88.457 126.15 90.0312 126.15 91.9732V95.5992C126.15 97.5411 124.576 99.1153 122.634 99.1153H119.009C117.067 99.1153 115.493 97.5411 115.493 95.5992V91.9732C115.493 90.0312 117.067 88.457 119.009 88.457H122.634Z" fill="#D72638"/>
<path d="M151.264 117.525C153.206 117.525 154.78 119.099 154.78 121.041V124.667C154.78 126.609 153.206 128.183 151.264 128.183H147.639C145.697 128.183 144.123 126.609 144.123 124.667V121.041C144.123 119.099 145.697 117.525 147.639 117.525H151.264Z" fill="#D72638"/>
<path d="M179.895 88.457C181.836 88.457 183.41 90.0312 183.41 91.9732V95.5992C183.41 97.5411 181.836 99.1153 179.895 99.1153H176.269C174.328 99.1153 172.754 97.5411 172.754 95.5992V91.9732C172.754 90.0312 174.328 88.457 176.269 88.457H179.895Z" fill="#D72638"/>
<path d="M208.526 117.525C210.467 117.525 212.041 119.099 212.041 121.041V124.667C212.041 126.609 210.467 128.183 208.526 128.183H204.9C202.959 128.183 201.385 126.609 201.385 124.667V121.041C201.385 119.099 202.959 117.525 204.9 117.525H208.526Z" fill="#D72638"/>
<path d="M237.156 88.457C239.097 88.457 240.671 90.0312 240.671 91.9732V95.5992C240.671 97.5411 239.097 99.1153 237.156 99.1153H233.53C231.589 99.1153 230.015 97.5411 230.015 95.5992V91.9732C230.015 90.0312 231.589 88.457 233.53 88.457H237.156Z" fill="#D72638"/>
<path d="M265.786 117.525C267.728 117.525 269.302 119.099 269.302 121.041V124.667C269.302 126.609 267.728 128.183 265.786 128.183H262.161C260.219 128.183 258.645 126.609 258.645 124.667V121.041C258.645 119.099 260.219 117.525 262.161 117.525H265.786Z" fill="#D72638"/>
<path d="M36.7421 88.2705C38.6837 88.2705 40.2577 89.8447 40.2577 91.7866V95.4126C40.2577 97.3545 38.6837 98.9288 36.7421 98.9288H33.1167C31.1751 98.9288 29.6011 97.3545 29.6011 95.4126V91.7866C29.6011 89.8447 31.1751 88.2705 33.1167 88.2705H36.7421Z" fill="#D72638"/>
<path d="M65.3729 59.2021C67.3145 59.2021 68.8885 60.7764 68.8885 62.7183V66.3444C68.8885 68.2863 67.3145 69.8607 65.3729 69.8607H61.7475C59.8059 69.8607 58.2319 68.2863 58.2319 66.3444V62.7183C58.2319 60.7764 59.8059 59.2021 61.7475 59.2021H65.3729Z" fill="#D72638"/>
<path d="M94.0031 88.2705C95.9447 88.2705 97.5187 89.8447 97.5187 91.7866V95.4126C97.5187 97.3545 95.9447 98.9288 94.0031 98.9288H90.3776C88.436 98.9288 86.8621 97.3545 86.8621 95.4126V91.7866C86.8621 89.8447 88.436 88.2705 90.3776 88.2705H94.0031Z" fill="#D72638"/>
<path d="M122.634 59.2021C124.576 59.2021 126.15 60.7764 126.15 62.7183V66.3444C126.15 68.2863 124.576 69.8607 122.634 69.8607H119.009C117.067 69.8607 115.493 68.2863 115.493 66.3444V62.7183C115.493 60.7764 117.067 59.2021 119.009 59.2021H122.634Z" fill="#D72638"/>
<path d="M151.264 88.2705C153.206 88.2705 154.78 89.8447 154.78 91.7866V95.4126C154.78 97.3545 153.206 98.9288 151.264 98.9288H147.639C145.697 98.9288 144.123 97.3545 144.123 95.4126V91.7866C144.123 89.8447 145.697 88.2705 147.639 88.2705H151.264Z" fill="#D72638"/>
<path d="M179.895 59.2021C181.836 59.2021 183.41 60.7764 183.41 62.7183V66.3444C183.41 68.2863 181.836 69.8607 179.895 69.8607H176.269C174.328 69.8607 172.754 68.2863 172.754 66.3444V62.7183C172.754 60.7764 174.328 59.2021 176.269 59.2021H179.895Z" fill="#D72638"/>
<path d="M208.526 88.2705C210.467 88.2705 212.041 89.8447 212.041 91.7866V95.4126C212.041 97.3545 210.467 98.9288 208.526 98.9288H204.9C202.959 98.9288 201.385 97.3545 201.385 95.4126V91.7866C201.385 89.8447 202.959 88.2705 204.9 88.2705H208.526Z" fill="#D72638"/>
<path d="M237.156 59.2021C239.097 59.2021 240.671 60.7764 240.671 62.7183V66.3444C240.671 68.2863 239.097 69.8607 237.156 69.8607H233.53C231.589 69.8607 230.015 68.2863 230.015 66.3444V62.7183C230.015 60.7764 231.589 59.2021 233.53 59.2021H237.156Z" fill="#D72638"/>
<path d="M265.786 88.2705C267.728 88.2705 269.302 89.8447 269.302 91.7866V95.4126C269.302 97.3545 267.728 98.9288 265.786 98.9288H262.161C260.219 98.9288 258.645 97.3545 258.645 95.4126V91.7866C258.645 89.8447 260.219 88.2705 262.161 88.2705H265.786Z" fill="#D72638"/>
<path d="M294.417 29.9473C296.359 29.9473 297.932 31.5216 297.932 33.4635V37.0895C297.932 39.0314 296.359 40.6056 294.417 40.6056H290.791C288.85 40.6056 287.276 39.0314 287.276 37.0895V33.4635C287.276 31.5216 288.85 29.9473 290.791 29.9473H294.417Z" fill="#D72638"/>
<path d="M8.11174 29.9473C10.0533 29.9473 11.6273 31.5216 11.6273 33.4635V37.0895C11.6273 39.0314 10.0533 40.6056 8.11174 40.6056H4.48628C2.54468 40.6056 0.970703 39.0314 0.970703 37.0895V33.4635C0.970703 31.5216 2.54468 29.9473 4.48628 29.9473H8.11174Z" fill="#D72638"/>
<path d="M36.7421 59.0156C38.6837 59.0156 40.2577 60.5899 40.2577 62.5318V66.1579C40.2577 68.0998 38.6837 69.6739 36.7421 69.6739H33.1167C31.1751 69.6739 29.6011 68.0998 29.6011 66.1579V62.5318C29.6011 60.5899 31.1751 59.0156 33.1167 59.0156H36.7421Z" fill="#D72638"/>
<path d="M65.3729 29.9473C67.3145 29.9473 68.8885 31.5216 68.8885 33.4635V37.0895C68.8885 39.0314 67.3145 40.6056 65.3729 40.6056H61.7475C59.8059 40.6056 58.2319 39.0314 58.2319 37.0895V33.4635C58.2319 31.5216 59.8059 29.9473 61.7475 29.9473H65.3729Z" fill="#D72638"/>
<path d="M94.0031 59.0156C95.9447 59.0156 97.5187 60.5899 97.5187 62.5318V66.1579C97.5187 68.0998 95.9447 69.6739 94.0031 69.6739H90.3776C88.436 69.6739 86.8621 68.0998 86.8621 66.1579V62.5318C86.8621 60.5899 88.436 59.0156 90.3776 59.0156H94.0031Z" fill="#D72638"/>
<path d="M122.634 29.9473C124.576 29.9473 126.15 31.5216 126.15 33.4635V37.0895C126.15 39.0314 124.576 40.6056 122.634 40.6056H119.009C117.067 40.6056 115.493 39.0314 115.493 37.0895V33.4635C115.493 31.5216 117.067 29.9473 119.009 29.9473H122.634Z" fill="#D72638"/>
<path d="M151.264 59.0156C153.206 59.0156 154.78 60.5899 154.78 62.5318V66.1579C154.78 68.0998 153.206 69.6739 151.264 69.6739H147.639C145.697 69.6739 144.123 68.0998 144.123 66.1579V62.5318C144.123 60.5899 145.697 59.0156 147.639 59.0156H151.264Z" fill="#D72638"/>
<path d="M179.895 29.9473C181.836 29.9473 183.41 31.5216 183.41 33.4635V37.0895C183.41 39.0314 181.836 40.6056 179.895 40.6056H176.269C174.328 40.6056 172.754 39.0314 172.754 37.0895V33.4635C172.754 31.5216 174.328 29.9473 176.269 29.9473H179.895Z" fill="#D72638"/>
<path d="M208.526 59.0156C210.467 59.0156 212.041 60.5899 212.041 62.5318V66.1579C212.041 68.0998 210.467 69.6739 208.526 69.6739H204.9C202.959 69.6739 201.385 68.0998 201.385 66.1579V62.5318C201.385 60.5899 202.959 59.0156 204.9 59.0156H208.526Z" fill="#D72638"/>
<path d="M237.156 29.9473C239.097 29.9473 240.671 31.5216 240.671 33.4635V37.0895C240.671 39.0314 239.097 40.6056 237.156 40.6056H233.53C231.589 40.6056 230.015 39.0314 230.015 37.0895V33.4635C230.015 31.5216 231.589 29.9473 233.53 29.9473H237.156Z" fill="#D72638"/>
<path d="M265.786 59.0156C267.728 59.0156 269.302 60.5899 269.302 62.5318V66.1579C269.302 68.0998 267.728 69.6739 265.786 69.6739H262.161C260.219 69.6739 258.645 68.0998 258.645 66.1579V62.5318C258.645 60.5899 260.219 59.0156 262.161 59.0156H265.786Z" fill="#D72638"/>
<path d="M36.7421 29.7612C38.6837 29.7612 40.2577 31.3354 40.2577 33.2774V36.9034C40.2577 38.8453 38.6837 40.4196 36.7421 40.4196H33.1167C31.1751 40.4196 29.6011 38.8453 29.6011 36.9034V33.2774C29.6011 31.3354 31.1751 29.7612 33.1167 29.7612H36.7421Z" fill="#D72638"/>
<path d="M65.3729 0.692871C67.3145 0.692871 68.8885 2.2671 68.8885 4.20901V7.83505C68.8885 9.77696 67.3145 11.3512 65.3729 11.3512H61.7475C59.8059 11.3512 58.2319 9.77696 58.2319 7.83505V4.20901C58.2319 2.2671 59.8059 0.692871 61.7475 0.692871H65.3729Z" fill="#D72638"/>
<path d="M94.0031 29.7612C95.9447 29.7612 97.5187 31.3354 97.5187 33.2774V36.9034C97.5187 38.8453 95.9447 40.4196 94.0031 40.4196H90.3776C88.436 40.4196 86.8621 38.8453 86.8621 36.9034V33.2774C86.8621 31.3354 88.436 29.7612 90.3776 29.7612H94.0031Z" fill="#D72638"/>
<path d="M122.634 0.692871C124.576 0.692871 126.15 2.2671 126.15 4.20901V7.83505C126.15 9.77696 124.576 11.3512 122.634 11.3512H119.009C117.067 11.3512 115.493 9.77696 115.493 7.83505V4.20901C115.493 2.2671 117.067 0.692871 119.009 0.692871H122.634Z" fill="#D72638"/>
<path d="M151.264 29.7612C153.206 29.7612 154.78 31.3354 154.78 33.2774V36.9034C154.78 38.8453 153.206 40.4196 151.264 40.4196H147.639C145.697 40.4196 144.123 38.8453 144.123 36.9034V33.2774C144.123 31.3354 145.697 29.7612 147.639 29.7612H151.264Z" fill="#D72638"/>
<path d="M179.895 0.692871C181.836 0.692871 183.41 2.2671 183.41 4.20901V7.83505C183.41 9.77696 181.836 11.3512 179.895 11.3512H176.269C174.328 11.3512 172.754 9.77696 172.754 7.83505V4.20901C172.754 2.2671 174.328 0.692871 176.269 0.692871H179.895Z" fill="#D72638"/>
<path d="M208.526 29.7612C210.467 29.7612 212.041 31.3354 212.041 33.2774V36.9034C212.041 38.8453 210.467 40.4196 208.526 40.4196H204.9C202.959 40.4196 201.385 38.8453 201.385 36.9034V33.2774C201.385 31.3354 202.959 29.7612 204.9 29.7612H208.526Z" fill="#D72638"/>
<path d="M237.156 0.692871C239.097 0.692871 240.671 2.2671 240.671 4.20901V7.83505C240.671 9.77696 239.097 11.3512 237.156 11.3512H233.53C231.589 11.3512 230.015 9.77696 230.015 7.83505V4.20901C230.015 2.2671 231.589 0.692871 233.53 0.692871H237.156Z" fill="#D72638"/>
<path d="M265.786 29.7612C267.728 29.7612 269.302 31.3354 269.302 33.2774V36.9034C269.302 38.8453 267.728 40.4196 265.786 40.4196H262.161C260.219 40.4196 258.645 38.8453 258.645 36.9034V33.2774C258.645 31.3354 260.219 29.7612 262.161 29.7612H265.786Z" fill="#D72638"/>
</g>
</g>
</g>
<defs>
<clipPath id="clip0_271_753">
<rect width="298" height="187" fill="white"/>
</clipPath>
</defs>
</svg>
