<svg width="232" height="124" viewBox="0 0 232 124" fill="none" xmlns="http://www.w3.org/2000/svg">
<g clip-path="url(#clip0_271_962)">
<path d="M2.90671 32.1903C1.39459 32.1903 0.1698 30.9678 0.1698 29.4603V26.6441C0.1698 25.1358 1.39459 23.9141 2.90671 23.9141H5.73007C7.24141 23.9141 8.467 25.1358 8.467 26.6441V29.4603C8.467 30.9678 7.24141 32.1903 5.73007 32.1903H2.90671Z" fill="#F4B400"/>
<path d="M225.835 32.1903C224.323 32.1903 223.098 30.9678 223.098 29.4603V26.6441C223.098 25.1358 224.323 23.9141 225.835 23.9141H228.658C230.17 23.9141 231.396 25.1358 231.396 26.6441V29.4603C231.396 30.9678 230.17 32.1903 228.658 32.1903H225.835Z" fill="#F4B400"/>
<path d="M203.543 9.61773C202.031 9.61773 200.805 8.39527 200.805 6.88699V4.07158C200.805 2.5633 202.031 1.34082 203.543 1.34082L206.366 1.34082C207.877 1.34082 209.103 2.5633 209.103 4.07158V6.88699C209.103 8.39527 207.877 9.61773 206.366 9.61773H203.543Z" fill="#F4B400"/>
<path d="M181.25 32.1903C179.738 32.1903 178.512 30.9678 178.512 29.4603V26.6441C178.512 25.1358 179.738 23.9141 181.25 23.9141H184.073C185.584 23.9141 186.81 25.1358 186.81 26.6441V29.4603C186.81 30.9678 185.584 32.1903 184.073 32.1903H181.25Z" fill="#F4B400"/>
<path d="M158.957 9.61822C157.445 9.61822 156.219 8.39576 156.219 6.88748V4.07207C156.219 2.56379 157.445 1.34131 158.957 1.34131H161.78C163.292 1.34131 164.517 2.56379 164.517 4.07207V6.88748C164.517 8.39576 163.292 9.61822 161.78 9.61822H158.957Z" fill="#F4B400"/>
<path d="M136.664 32.1903C135.152 32.1903 133.926 30.9678 133.926 29.4603V26.6441C133.926 25.1358 135.152 23.9141 136.664 23.9141H139.487C140.999 23.9141 142.224 25.1358 142.224 26.6441V29.4603C142.224 30.9678 140.999 32.1903 139.487 32.1903H136.664Z" fill="#F4B400"/>
<path d="M114.371 9.61773C112.859 9.61773 111.634 8.39527 111.634 6.88699V4.07158C111.634 2.5633 112.859 1.34082 114.371 1.34082L117.194 1.34082C118.706 1.34082 119.932 2.5633 119.932 4.07158V6.88699C119.932 8.39527 118.706 9.61773 117.194 9.61773H114.371Z" fill="#F4B400"/>
<path d="M92.0782 32.1903C90.5668 32.1903 89.3412 30.9678 89.3412 29.4603V26.6441C89.3412 25.1358 90.5668 23.9141 92.0782 23.9141H94.9015C96.4128 23.9141 97.6384 25.1358 97.6384 26.6441V29.4603C97.6384 30.9678 96.4128 32.1903 94.9015 32.1903H92.0782Z" fill="#F4B400"/>
<path d="M69.7845 9.61822C68.2731 9.61822 67.0475 8.39576 67.0475 6.88748V4.07207C67.0475 2.56379 68.2731 1.34131 69.7845 1.34131H72.6078C74.1191 1.34131 75.3447 2.56379 75.3447 4.07207V6.88748C75.3447 8.39576 74.1191 9.61822 72.6078 9.61822H69.7845Z" fill="#F4B400"/>
<path d="M47.4925 32.1903C45.9811 32.1903 44.7555 30.9678 44.7555 29.4603V26.6441C44.7556 25.1358 45.9811 23.9141 47.4925 23.9141H50.3158C51.8272 23.9141 53.0527 25.1358 53.0527 26.6441V29.4603C53.0527 30.9678 51.8272 32.1903 50.3158 32.1903H47.4925Z" fill="#F4B400"/>
<path d="M25.2001 9.61773C23.688 9.61773 22.4624 8.39527 22.4624 6.88699V4.07158C22.4624 2.5633 23.688 1.34082 25.2001 1.34082L28.0227 1.34082C29.5348 1.34082 30.7604 2.5633 30.7604 4.07158V6.88699C30.7604 8.39527 29.5348 9.61773 28.0227 9.61773H25.2001Z" fill="#F4B400"/>
<path d="M203.543 32.3355C202.031 32.3355 200.806 31.113 200.806 29.6047V26.7893C200.806 25.2811 202.031 24.0586 203.543 24.0586H206.366C207.878 24.0586 209.104 25.2811 209.104 26.7893V29.6047C209.104 31.113 207.878 32.3355 206.366 32.3355H203.543Z" fill="#F4B400"/>
<path d="M181.25 54.9073C179.738 54.9073 178.512 53.6849 178.512 52.1774V49.3612C178.512 47.8529 179.738 46.6304 181.25 46.6304H184.073C185.584 46.6304 186.81 47.8529 186.81 49.3612V52.1774C186.81 53.6849 185.584 54.9073 184.073 54.9073H181.25Z" fill="#F4B400"/>
<path d="M158.957 32.3355C157.445 32.3355 156.219 31.1131 156.219 29.6048V26.7894C156.219 25.2811 157.445 24.0586 158.957 24.0586H161.78C163.292 24.0586 164.517 25.2811 164.517 26.7894V29.6048C164.517 31.1131 163.292 32.3355 161.78 32.3355H158.957Z" fill="#F4B400"/>
<path d="M136.664 54.9073C135.152 54.9073 133.926 53.6849 133.926 52.1774V49.3612C133.926 47.8529 135.152 46.6304 136.664 46.6304H139.487C140.999 46.6304 142.224 47.8529 142.224 49.3612V52.1774C142.224 53.6849 140.999 54.9073 139.487 54.9073H136.664Z" fill="#F4B400"/>
<path d="M114.371 32.3355C112.859 32.3355 111.634 31.113 111.634 29.6047V26.7893C111.634 25.2811 112.859 24.0586 114.371 24.0586H117.194C118.706 24.0586 119.932 25.2811 119.932 26.7893V29.6047C119.932 31.113 118.706 32.3355 117.194 32.3355H114.371Z" fill="#F4B400"/>
<path d="M92.0785 54.9073C90.5672 54.9073 89.3416 53.6849 89.3416 52.1774V49.3612C89.3416 47.8529 90.5672 46.6304 92.0785 46.6304H94.9019C96.4132 46.6304 97.6388 47.8529 97.6388 49.3612V52.1774C97.6388 53.6849 96.4132 54.9073 94.9019 54.9073H92.0785Z" fill="#F4B400"/>
<path d="M69.7848 32.3355C68.2735 32.3355 67.0479 31.1131 67.0479 29.6048V26.7894C67.0479 25.2811 68.2735 24.0586 69.7848 24.0586H72.6082C74.1195 24.0586 75.3451 25.2811 75.3451 26.7894V29.6048C75.3451 31.1131 74.1195 32.3355 72.6082 32.3355H69.7848Z" fill="#F4B400"/>
<path d="M47.4925 54.9073C45.9811 54.9073 44.7555 53.6849 44.7555 52.1774V49.3612C44.7556 47.8529 45.9811 46.6304 47.4925 46.6304H50.3158C51.8272 46.6304 53.0527 47.8529 53.0527 49.3612V52.1774C53.0527 53.6849 51.8272 54.9073 50.3158 54.9073H47.4925Z" fill="#F4B400"/>
<path d="M25.2001 32.3355C23.688 32.3355 22.4624 31.1131 22.4624 29.6048V26.7894C22.4624 25.2811 23.688 24.0586 25.2001 24.0586H28.0227C29.5348 24.0586 30.7604 25.2811 30.7604 26.7894V29.6048C30.7604 31.1131 29.5348 32.3355 28.0227 32.3355H25.2001Z" fill="#F4B400"/>
<path d="M2.90671 77.6247C1.39459 77.6247 0.1698 76.4023 0.1698 74.8943V72.0785C0.1698 70.5705 1.39459 69.3481 2.90671 69.3481H5.73007C7.24141 69.3481 8.467 70.5705 8.467 72.0785V74.8943C8.467 76.4023 7.24141 77.6247 5.73007 77.6247H2.90671Z" fill="#F4B400"/>
<path d="M203.543 55.0523C202.031 55.0523 200.805 53.8298 200.805 52.3215V49.5061C200.805 47.9978 202.031 46.7754 203.543 46.7754H206.366C207.877 46.7754 209.103 47.9978 209.103 49.5061V52.3215C209.103 53.8298 207.877 55.0523 206.366 55.0523H203.543Z" fill="#F4B400"/>
<path d="M158.957 55.0523C157.445 55.0523 156.219 53.8298 156.219 52.3215V49.5061C156.219 47.9978 157.445 46.7754 158.957 46.7754H161.78C163.292 46.7754 164.517 47.9978 164.517 49.5061V52.3215C164.517 53.8298 163.292 55.0523 161.78 55.0523H158.957Z" fill="#F4B400"/>
<path d="M114.371 55.0523C112.859 55.0523 111.634 53.8298 111.634 52.3215V49.5061C111.634 47.9978 112.859 46.7754 114.371 46.7754H117.194C118.706 46.7754 119.932 47.9978 119.932 49.5061V52.3215C119.932 53.8298 118.706 55.0523 117.194 55.0523H114.371Z" fill="#F4B400"/>
<path d="M92.0782 77.6252C90.5668 77.6252 89.3412 76.4027 89.3412 74.8948V72.079C89.3412 70.571 90.5668 69.3486 92.0782 69.3486H94.9015C96.4128 69.3486 97.6384 70.571 97.6384 72.079V74.8948C97.6384 76.4028 96.4128 77.6252 94.9015 77.6252H92.0782Z" fill="#F4B400"/>
<path d="M69.7851 55.0523C68.2737 55.0523 67.0481 53.8298 67.0481 52.3215V49.5061C67.0481 47.9978 68.2737 46.7754 69.7851 46.7754H72.6084C74.1198 46.7754 75.3453 47.9978 75.3453 49.5061V52.3215C75.3453 53.8298 74.1198 55.0523 72.6084 55.0523H69.7851Z" fill="#F4B400"/>
<path d="M47.4925 77.6247C45.9811 77.6247 44.7555 76.4023 44.7555 74.8943V72.0785C44.7556 70.5705 45.9811 69.3481 47.4925 69.3481H50.3158C51.8272 69.3481 53.0527 70.5705 53.0527 72.0785V74.8943C53.0527 76.4023 51.8272 77.6247 50.3158 77.6247H47.4925Z" fill="#F4B400"/>
<path d="M25.2001 55.0523C23.688 55.0523 22.4624 53.8298 22.4624 52.3215V49.5061C22.4624 47.9978 23.688 46.7754 25.2001 46.7754H28.0227C29.5348 46.7754 30.7604 47.9978 30.7604 49.5061V52.3215C30.7604 53.8298 29.5348 55.0523 28.0227 55.0523H25.2001Z" fill="#F4B400"/>
<path d="M92.0782 100.342C90.5668 100.342 89.3412 99.1196 89.3412 97.6117V94.7959C89.3412 93.2879 90.5668 92.0654 92.0782 92.0654H94.9015C96.4128 92.0654 97.6384 93.2879 97.6384 94.7959V97.6117C97.6384 99.1197 96.4128 100.342 94.9015 100.342H92.0782Z" fill="#F4B400"/>
<path d="M69.7851 77.7703C68.2737 77.7703 67.0481 76.5478 67.0481 75.0398V72.2241C67.0481 70.7161 68.2737 69.4937 69.7851 69.4937H72.6084C74.1198 69.4937 75.3453 70.7161 75.3453 72.2241V75.0398C75.3453 76.5478 74.1198 77.7703 72.6084 77.7703H69.7851Z" fill="#F4B400"/>
<path d="M47.4925 100.342C45.9811 100.342 44.7555 99.1196 44.7555 97.6116V94.7958C44.7556 93.2879 45.9811 92.0654 47.4925 92.0654H50.3158C51.8272 92.0654 53.0527 93.2879 53.0527 94.7958V97.6116C53.0527 99.1196 51.8272 100.342 50.3158 100.342H47.4925Z" fill="#F4B400"/>
<path d="M25.2001 77.7693C23.688 77.7693 22.4624 76.5469 22.4624 75.0389V72.2232C22.4624 70.7152 23.688 69.4927 25.2001 69.4927H28.0227C29.5348 69.4927 30.7604 70.7152 30.7604 72.2232V75.0389C30.7604 76.5469 29.5348 77.7693 28.0227 77.7693H25.2001Z" fill="#F4B400"/>
<path d="M2.90659 123.06C1.39447 123.06 0.169678 121.838 0.169678 120.33V117.514C0.169678 116.006 1.39447 114.783 2.90659 114.783H5.72995C7.24129 114.783 8.46688 116.006 8.46688 117.514V120.33C8.46688 121.838 7.24129 123.06 5.72995 123.06H2.90659Z" fill="#F4B400"/>
<path d="M92.0782 123.06C90.5668 123.06 89.3412 121.837 89.3412 120.329V117.513C89.3412 116.005 90.5668 114.783 92.0782 114.783H94.9015C96.4128 114.783 97.6384 116.005 97.6384 117.513V120.329C97.6384 121.837 96.4128 123.06 94.9015 123.06H92.0782Z" fill="#F4B400"/>
<path d="M69.7848 100.488C68.2735 100.488 67.0479 99.2651 67.0479 97.7571V94.9413C67.0479 93.4333 68.2735 92.2109 69.7848 92.2109H72.6082C74.1195 92.2109 75.3451 93.4333 75.3451 94.9413V97.7571C75.3451 99.2651 74.1195 100.488 72.6082 100.488H69.7848Z" fill="#F4B400"/>
<path d="M47.4925 123.06C45.9811 123.06 44.7555 121.837 44.7555 120.329V117.513C44.7556 116.005 45.9811 114.783 47.4925 114.783H50.3158C51.8272 114.783 53.0527 116.005 53.0527 117.513V120.329C53.0527 121.837 51.8272 123.06 50.3158 123.06H47.4925Z" fill="#F4B400"/>
<path d="M25.2001 100.488C23.688 100.488 22.4624 99.2651 22.4624 97.7571V94.9413C22.4624 93.4333 23.688 92.2109 25.2001 92.2109H28.0227C29.5348 92.2109 30.7604 93.4333 30.7604 94.9413V97.7571C30.7604 99.2651 29.5348 100.488 28.0227 100.488H25.2001Z" fill="#F4B400"/>
<path d="M69.7848 123.204C68.2735 123.204 67.0479 121.982 67.0479 120.474V117.658C67.0479 116.15 68.2735 114.928 69.7848 114.928H72.6082C74.1195 114.928 75.3451 116.15 75.3451 117.658V120.474C75.3451 121.982 74.1195 123.204 72.6082 123.204H69.7848Z" fill="#F4B400"/>
<path d="M25.2001 123.204C23.688 123.204 22.4624 121.982 22.4624 120.474V117.658C22.4624 116.15 23.688 114.928 25.2001 114.928H28.0227C29.5348 114.928 30.7604 116.15 30.7604 117.658V120.474C30.7604 121.982 29.5348 123.204 28.0227 123.204H25.2001Z" fill="#F4B400"/>
</g>
<defs>
<clipPath id="clip0_271_962">
<rect width="232" height="123" fill="white" transform="translate(0 0.5)"/>
</clipPath>
</defs>
</svg>
